<svg xmlns="http://www.w3.org/2000/svg" width="318" height="270" viewBox="0 0 318 270" fill="none">
  <path d="M 0 5 C 0 2.239 2.239 0 5 0 L 313 0 C 315.761 0 318 2.239 318 5 L 318 182 C 318 184.761 315.761 187 313 187 L 5 187 C 2.239 187 0 184.761 0 182 L 0 5 Z" fill="currentColor" fill-rule="nonzero"></path>
  <path d="M 0 88 C 0 85.239 2.239 83 5 83 L 186 83 C 188.761 83 191 85.239 191 88 L 191 265 C 191 267.761 188.761 270 186 270 L 5 270 C 2.239 270 0 267.761 0 265 L 0 88 Z" fill="currentColor" fill-rule="nonzero"></path>
  <path d="M 202 189.5 C 206.4 187.5 209.833 187 211 187 L 220 187 L 220 177 L 212.5 177 L 183.5 175.5 L 170.5 195.5 L 191 204.5 C 192.833 200.333 197.6 191.5 202 189.5 Z" fill="currentColor" fill-rule="nonzero"></path>
  <path d="M 202 189.5 L 201.793 189.045 L 201.793 189.045 L 202 189.5 Z M 191 204.5 L 190.799 204.958 L 191.256 205.159 L 191.458 204.701 L 191 204.5 Z M 170.5 195.5 L 170.081 195.228 L 169.76 195.721 L 170.299 195.958 L 170.5 195.5 Z M 183.5 175.5 L 183.526 175.001 L 183.238 174.986 L 183.081 175.228 L 183.5 175.5 Z M 212.5 177 L 212.474 177.499 L 212.487 177.5 L 212.5 177.5 L 212.5 177 Z M 220 177 L 220.5 177 L 220.5 176.5 L 220 176.5 L 220 177 Z M 220 187 L 220 187.5 L 220.5 187.5 L 220.5 187 L 220 187 Z M 5 0 L 5 0.5 L 313 0.5 L 313 0 L 313 -0.5 L 5 -0.5 L 5 0 Z M 318 5 L 317.5 5 L 317.5 182 L 318 182 L 318.5 182 L 318.5 5 L 318 5 Z M 313 187 L 313 186.5 L 5 186.5 L 5 187 L 5 187.5 L 313 187.5 L 313 187 Z M 0 182 L 0.5 182 L 0.5 5 L 0 5 L -0.5 5 L -0.5 182 L 0 182 Z M 5 187 L 5 186.5 C 2.515 186.5 0.5 184.485 0.5 182 L 0 182 L -0.5 182 C -0.5 185.038 1.962 187.5 5 187.5 L 5 187 Z M 318 182 L 317.5 182 C 317.5 184.485 315.485 186.5 313 186.5 L 313 187 L 313 187.5 C 316.038 187.5 318.5 185.038 318.5 182 L 318 182 Z M 313 0 L 313 0.5 C 315.485 0.5 317.5 2.515 317.5 5 L 318 5 L 318.5 5 C 318.5 1.962 316.038 -0.5 313 -0.5 L 313 0 Z M 5 0 L 5 -0.5 C 1.962 -0.5 -0.5 1.962 -0.5 5 L 0 5 L 0.5 5 C 0.5 2.515 2.515 0.5 5 0.5 L 5 0 Z M 5 83 L 5 83.5 L 186 83.5 L 186 83 L 186 82.5 L 5 82.5 L 5 83 Z M 191 88 L 190.5 88 L 190.5 265 L 191 265 L 191.5 265 L 191.5 88 L 191 88 Z M 186 270 L 186 269.5 L 5 269.5 L 5 270 L 5 270.5 L 186 270.5 L 186 270 Z M 0 265 L 0.5 265 L 0.5 88 L 0 88 L -0.5 88 L -0.5 265 L 0 265 Z M 5 270 L 5 269.5 C 2.515 269.5 0.5 267.485 0.5 265 L 0 265 L -0.5 265 C -0.5 268.038 1.962 270.5 5 270.5 L 5 270 Z M 191 265 L 190.5 265 C 190.5 267.485 188.485 269.5 186 269.5 L 186 270 L 186 270.5 C 189.038 270.5 191.5 268.038 191.5 265 L 191 265 Z M 186 83 L 186 83.5 C 188.485 83.5 190.5 85.515 190.5 88 L 191 88 L 191.5 88 C 191.5 84.962 189.038 82.5 186 82.5 L 186 83 Z M 5 83 L 5 82.5 C 1.962 82.5 -0.5 84.962 -0.5 88 L 0 88 L 0.5 88 C 0.5 85.515 2.515 83.5 5 83.5 L 5 83 Z M 211 187 L 211 186.5 C 209.747 186.5 206.243 187.022 201.793 189.045 L 202 189.5 L 202.207 189.955 C 206.557 187.978 209.92 187.5 211 187.5 L 211 187 Z M 202 189.5 L 201.793 189.045 C 200.607 189.584 199.431 190.565 198.317 191.761 C 197.198 192.962 196.115 194.408 195.12 195.912 C 193.131 198.919 191.468 202.195 190.542 204.299 L 191 204.5 L 191.458 204.701 C 192.365 202.639 194.002 199.415 195.955 196.463 C 196.931 194.988 197.979 193.59 199.049 192.442 C 200.123 191.29 201.193 190.416 202.207 189.955 L 202 189.5 Z M 191 204.5 L 191.201 204.042 L 170.701 195.042 L 170.5 195.5 L 170.299 195.958 L 190.799 204.958 L 191 204.5 Z M 170.5 195.5 L 170.919 195.772 L 183.919 175.772 L 183.5 175.5 L 183.081 175.228 L 170.081 195.228 L 170.5 195.5 Z M 183.5 175.5 L 183.474 175.999 L 212.474 177.499 L 212.5 177 L 212.526 176.501 L 183.526 175.001 L 183.5 175.5 Z M 212.5 177 L 212.5 177.5 L 220 177.5 L 220 177 L 220 176.5 L 212.5 176.5 L 212.5 177 Z M 220 177 L 219.5 177 L 219.5 187 L 220 187 L 220.5 187 L 220.5 177 L 220 177 Z M 220 187 L 220 186.5 L 211 186.5 L 211 187 L 211 187.5 L 220 187.5 L 220 187 Z" fill="currentColor" fill-rule="nonzero"></path>
</svg>